<svg width="256" height="93" viewBox="0 0 256 93" fill="none" xmlns="http://www.w3.org/2000/svg">
<circle cx="45" cy="47" r="45" fill="#CB582B"/>
<path d="M54.8799 15C56.1992 15 57.2693 16.0694 57.2695 17.3887V20.1484H59.1895C60.24 20.1487 61.0918 21.0002 61.0918 22.0508C61.0916 23.1012 60.2398 23.9529 59.1895 23.9531H57.2695V28.1348C60.5311 28.5772 63.882 29.9769 67.7246 32.3096C69.6318 33.4675 70.0685 36.0104 68.7773 37.8301L59.6865 50.6396L76 92.1074H34L50.3965 50.4248L41.4316 37.791C40.1513 35.9867 40.5687 33.4655 42.4502 32.3018C46.1319 30.0248 49.3614 28.657 52.4912 28.1768V23.9531H50.8096C49.7591 23.953 48.9074 23.1013 48.9072 22.0508C48.9072 21.0002 49.759 20.1486 50.8096 20.1484H52.4912V17.3887C52.4914 16.0695 53.5607 15.0002 54.8799 15Z" fill="white"/>
<path d="M27.1725 46C32.6577 46 37.1041 50.2882 37.1041 55.5781C37.104 58.7204 35.5346 61.5084 33.111 63.2549L36.4508 66.2568C38.4313 68.0366 37.2759 71.2727 34.7047 71.4775L38.2076 76.5439L42.652 82.96C45.2965 86.7785 42.8344 92.0295 38.2076 92.4395H17.2408C12.0469 92.0314 9.24648 86.1505 12.2037 81.8613L15.8697 76.5439L19.7975 71.4844C17.117 71.4019 15.8737 68.0725 17.8942 66.2568L21.233 63.2549C18.8097 61.5083 17.2409 58.7201 17.2408 55.5781C17.2408 50.2882 21.6872 46 27.1725 46Z" fill="white"/>
<path d="M138.232 39.576C135.32 39.576 132.744 38.888 130.504 37.512C128.264 36.104 126.52 34.12 125.272 31.56C124.024 28.968 123.4 25.896 123.4 22.344C123.4 18.92 124.024 15.896 125.272 13.272C126.552 10.616 128.344 8.552 130.648 7.08C132.984 5.576 135.704 4.824 138.808 4.824C140.408 4.824 141.864 4.984 143.176 5.304C144.488 5.592 145.72 6.008 146.872 6.552L145.48 10.392C144.488 9.912 143.464 9.528 142.408 9.24C141.384 8.952 140.168 8.808 138.76 8.808C136.712 8.808 134.872 9.336 133.24 10.392C131.64 11.448 130.376 12.968 129.448 14.952C128.52 16.936 128.056 19.336 128.056 22.152C128.056 24.84 128.504 27.192 129.4 29.208C130.328 31.224 131.592 32.792 133.192 33.912C134.824 35.032 136.68 35.592 138.76 35.592C140.328 35.592 141.688 35.4 142.84 35.016C143.992 34.632 145.112 34.136 146.2 33.528L147.592 37.32C146.408 37.96 145.048 38.504 143.512 38.952C142.008 39.368 140.248 39.576 138.232 39.576ZM153.34 39V3.48H157.66V18.024C158.556 16.712 159.692 15.624 161.068 14.76C162.444 13.896 164.06 13.464 165.916 13.464C168.732 13.464 170.828 14.312 172.204 16.008C173.612 17.704 174.316 19.944 174.316 22.728V39H169.996V23.208C169.996 21.416 169.58 19.976 168.748 18.888C167.916 17.8 166.748 17.256 165.244 17.256C163.772 17.256 162.364 17.784 161.02 18.84C159.708 19.864 158.588 21.08 157.66 22.488V39H153.34ZM191.73 39.576C188.146 39.576 185.298 38.44 183.186 36.168C181.106 33.864 180.066 30.648 180.066 26.52C180.066 24.024 180.53 21.8 181.458 19.848C182.418 17.864 183.746 16.312 185.442 15.192C187.138 14.04 189.106 13.464 191.346 13.464C193.746 13.464 195.73 13.992 197.298 15.048C198.898 16.072 200.098 17.464 200.898 19.224C201.698 20.984 202.098 22.92 202.098 25.032C202.098 26.152 202.05 27.24 201.954 28.296H184.482C184.77 30.632 185.586 32.456 186.93 33.768C188.274 35.08 190.05 35.736 192.258 35.736C193.698 35.736 194.994 35.592 196.146 35.304C197.298 34.984 198.402 34.584 199.458 34.104L200.466 37.8C199.314 38.312 198.018 38.728 196.578 39.048C195.138 39.4 193.522 39.576 191.73 39.576ZM184.434 24.792H198.114C198.114 22.36 197.506 20.488 196.29 19.176C195.074 17.864 193.394 17.208 191.25 17.208C189.394 17.208 187.858 17.864 186.642 19.176C185.426 20.456 184.69 22.328 184.434 24.792ZM217.936 39.576C215.568 39.576 213.488 39.032 211.696 37.944C209.936 36.824 208.576 35.288 207.616 33.336C206.656 31.352 206.176 29.08 206.176 26.52C206.176 24.12 206.656 21.928 207.616 19.944C208.608 17.96 210.016 16.392 211.84 15.24C213.664 14.056 215.808 13.464 218.272 13.464C219.68 13.464 220.912 13.592 221.968 13.848C223.056 14.104 224.096 14.472 225.088 14.952L223.792 18.6C222.896 18.152 222.032 17.832 221.2 17.64C220.4 17.416 219.504 17.304 218.512 17.304C216.272 17.304 214.384 18.12 212.848 19.752C211.344 21.352 210.592 23.576 210.592 26.424C210.592 28.152 210.912 29.72 211.552 31.128C212.192 32.536 213.072 33.656 214.192 34.488C215.344 35.32 216.688 35.736 218.224 35.736C219.44 35.736 220.48 35.608 221.344 35.352C222.208 35.064 223.136 34.664 224.128 34.152L225.472 37.8C224.48 38.344 223.36 38.776 222.112 39.096C220.896 39.416 219.504 39.576 217.936 39.576ZM247.728 39.48L234.816 26.184V39H230.496V3.48H234.816V23.784L246.096 13.56L248.592 16.296L238.944 24.84L250.704 36.6L247.728 39.48ZM125.32 86V52.4H131.704L141.016 73.664L150.184 52.4H156.712V86H152.152V58.208L143.176 78.416H138.664L129.64 58.208V86H125.32ZM174.423 86.576C172.343 86.576 170.455 86.048 168.759 84.992C167.063 83.936 165.703 82.448 164.679 80.528C163.687 78.576 163.191 76.288 163.191 73.664C163.191 71.168 163.687 68.928 164.679 66.944C165.703 64.96 167.095 63.392 168.855 62.24C170.647 61.056 172.695 60.464 174.999 60.464C176.439 60.464 177.735 60.72 178.887 61.232C180.071 61.712 181.095 62.32 181.959 63.056V61.04H185.895V79.952C185.895 81.168 186.183 81.968 186.759 82.352C187.367 82.704 188.023 82.88 188.727 82.88L187.815 86.24C184.743 86.24 182.887 84.992 182.247 82.496C181.511 83.52 180.503 84.464 179.223 85.328C177.975 86.16 176.375 86.576 174.423 86.576ZM175.383 82.736C176.599 82.736 177.751 82.448 178.839 81.872C179.927 81.264 180.839 80.512 181.575 79.616V66.224C180.711 65.616 179.751 65.136 178.695 64.784C177.671 64.4 176.583 64.208 175.431 64.208C173.895 64.208 172.535 64.608 171.351 65.408C170.199 66.176 169.287 67.264 168.615 68.672C167.943 70.048 167.607 71.664 167.607 73.52C167.607 75.312 167.943 76.912 168.615 78.32C169.287 79.696 170.215 80.784 171.399 81.584C172.583 82.352 173.911 82.736 175.383 82.736ZM203.232 86.576C200.832 86.576 198.928 85.792 197.52 84.224C196.144 82.624 195.456 80.352 195.456 77.408V65.696H191.136V61.952H195.552L196.464 54.08H199.776V61.952H206.688V65.696H199.776V77.744C199.776 79.6 200.16 80.896 200.928 81.632C201.728 82.368 202.672 82.736 203.76 82.736C204.56 82.736 205.312 82.608 206.016 82.352C206.752 82.096 207.424 81.792 208.032 81.44L209.232 84.896C208.592 85.28 207.728 85.648 206.64 86C205.552 86.384 204.416 86.576 203.232 86.576ZM222.621 86.576C219.037 86.576 216.189 85.44 214.077 83.168C211.997 80.864 210.957 77.648 210.957 73.52C210.957 71.024 211.421 68.8 212.349 66.848C213.309 64.864 214.637 63.312 216.333 62.192C218.029 61.04 219.997 60.464 222.237 60.464C224.637 60.464 226.621 60.992 228.189 62.048C229.789 63.072 230.989 64.464 231.789 66.224C232.589 67.984 232.989 69.92 232.989 72.032C232.989 73.152 232.941 74.24 232.845 75.296H215.373C215.661 77.632 216.477 79.456 217.821 80.768C219.165 82.08 220.941 82.736 223.149 82.736C224.589 82.736 225.885 82.592 227.037 82.304C228.189 81.984 229.293 81.584 230.349 81.104L231.357 84.8C230.205 85.312 228.909 85.728 227.469 86.048C226.029 86.4 224.413 86.576 222.621 86.576ZM215.325 71.792H229.005C229.005 69.36 228.397 67.488 227.181 66.176C225.965 64.864 224.285 64.208 222.141 64.208C220.285 64.208 218.749 64.864 217.533 66.176C216.317 67.456 215.581 69.328 215.325 71.792Z" fill="#CB582B"/>
</svg>
